<svg id="visual" viewBox="0 0 2560 1440" width="2560" height="1440" xmlns="http://www.w3.org/2000/svg" xmlns:xlink="http://www.w3.org/1999/xlink" version="1.1"><rect width="2560" height="1440" fill="#001829"></rect><g><g transform="translate(2155 1012)"><path d="M0 -201.7L118.6 -163.2L191.9 -62.3L191.9 62.3L118.6 163.2L0 201.7L-118.6 163.2L-191.9 62.3L-191.9 -62.3L-118.6 -163.2Z" fill="#297EA6"></path></g><g transform="translate(760 692)"><path d="M0 -179L105.2 -144.8L170.2 -55.3L170.2 55.3L105.2 144.8L0 179L-105.2 144.8L-170.2 55.3L-170.2 -55.3L-105.2 -144.8Z" fill="#297EA6"></path></g><g transform="translate(1486 922)"><path d="M0 -198L116.4 -160.2L188.3 -61.2L188.3 61.2L116.4 160.2L0 198L-116.4 160.2L-188.3 61.2L-188.3 -61.2L-116.4 -160.2Z" fill="#297EA6"></path></g><g transform="translate(1873 1411)"><path d="M0 -153L89.9 -123.8L145.5 -47.3L145.5 47.3L89.9 123.8L0 153L-89.9 123.8L-145.5 47.3L-145.5 -47.3L-89.9 -123.8Z" fill="#297EA6"></path></g><g transform="translate(1591 37)"><path d="M0 -167L98.2 -135.1L158.8 -51.6L158.8 51.6L98.2 135.1L0 167L-98.2 135.1L-158.8 51.6L-158.8 -51.6L-98.2 -135.1Z" fill="#297EA6"></path></g><g transform="translate(209 885)"><path d="M0 -159L93.5 -128.6L151.2 -49.1L151.2 49.1L93.5 128.6L0 159L-93.5 128.6L-151.2 49.1L-151.2 -49.1L-93.5 -128.6Z" fill="#297EA6"></path></g><g transform="translate(1000 230)"><path d="M0 -172L101.1 -139.2L163.6 -53.2L163.6 53.2L101.1 139.2L0 172L-101.1 139.2L-163.6 53.2L-163.6 -53.2L-101.1 -139.2Z" fill="#297EA6"></path></g><g transform="translate(1439 1386)"><path d="M0 -179L105.2 -144.8L170.2 -55.3L170.2 55.3L105.2 144.8L0 179L-105.2 144.8L-170.2 55.3L-170.2 -55.3L-105.2 -144.8Z" fill="#297EA6"></path></g><g transform="translate(2402 173)"><path d="M0 -179L105.2 -144.8L170.2 -55.3L170.2 55.3L105.2 144.8L0 179L-105.2 144.8L-170.2 55.3L-170.2 -55.3L-105.2 -144.8Z" fill="#297EA6"></path></g><g transform="translate(485 1255)"><path d="M0 -153L89.9 -123.8L145.5 -47.3L145.5 47.3L89.9 123.8L0 153L-89.9 123.8L-145.5 47.3L-145.5 -47.3L-89.9 -123.8Z" fill="#297EA6"></path></g><g transform="translate(545 145)"><path d="M0 -166L97.6 -134.3L157.9 -51.3L157.9 51.3L97.6 134.3L0 166L-97.6 134.3L-157.9 51.3L-157.9 -51.3L-97.6 -134.3Z" fill="#297EA6"></path></g><g transform="translate(146 419)"><path d="M0 -197L115.8 -159.4L187.4 -60.9L187.4 60.9L115.8 159.4L0 197L-115.8 159.4L-187.4 60.9L-187.4 -60.9L-115.8 -159.4Z" fill="#297EA6"></path></g><g transform="translate(38 1319)"><path d="M0 -165L97 -133.5L156.9 -51L156.9 51L97 133.5L0 165L-97 133.5L-156.9 51L-156.9 -51L-97 -133.5Z" fill="#297EA6"></path></g><g transform="translate(2111 560)"><path d="M0 -153L89.9 -123.8L145.5 -47.3L145.5 47.3L89.9 123.8L0 153L-89.9 123.8L-145.5 47.3L-145.5 -47.3L-89.9 -123.8Z" fill="#297EA6"></path></g><g transform="translate(1673 518)"><path d="M0 -157L92.3 -127L149.3 -48.5L149.3 48.5L92.3 127L0 157L-92.3 127L-149.3 48.5L-149.3 -48.5L-92.3 -127Z" fill="#297EA6"></path></g><g transform="translate(2468 1322)"><path d="M0 -160L94 -129.4L152.2 -49.4L152.2 49.4L94 129.4L0 160L-94 129.4L-152.2 49.4L-152.2 -49.4L-94 -129.4Z" fill="#297EA6"></path></g><g transform="translate(2520 745)"><path d="M0 -186L109.3 -150.5L176.9 -57.5L176.9 57.5L109.3 150.5L0 186L-109.3 150.5L-176.9 57.5L-176.9 -57.5L-109.3 -150.5Z" fill="#297EA6"></path></g><g transform="translate(969 1187)"><path d="M0 -200L117.6 -161.8L190.2 -61.8L190.2 61.8L117.6 161.8L0 200L-117.6 161.8L-190.2 61.8L-190.2 -61.8L-117.6 -161.8Z" fill="#297EA6"></path></g><g transform="translate(1204 594)"><path d="M0 -155L91.1 -125.4L147.4 -47.9L147.4 47.9L91.1 125.4L0 155L-91.1 125.4L-147.4 47.9L-147.4 -47.9L-91.1 -125.4Z" fill="#297EA6"></path></g><g transform="translate(3 1)"><path d="M0 -174L102.3 -140.8L165.5 -53.8L165.5 53.8L102.3 140.8L0 174L-102.3 140.8L-165.5 53.8L-165.5 -53.8L-102.3 -140.8Z" fill="#297EA6"></path></g></g></svg>