<svg id="visual" viewBox="0 0 1080 400" width="1080" height="400" xmlns="http://www.w3.org/2000/svg" xmlns:xlink="http://www.w3.org/1999/xlink" version="1.1"><path d="M0 326L154 205L309 367L463 137L617 188L771 136L926 384L1080 195L1080 0L926 0L771 0L617 0L463 0L309 0L154 0L0 0Z" fill="#f5730a"></path><path d="M0 299L154 122L309 174L463 167L617 307L771 265L926 325L1080 226L1080 0L926 0L771 0L617 0L463 0L309 0L154 0L0 0Z" fill="#e13846"></path><path d="M0 90L154 84L309 157L463 235L617 256L771 183L926 253L1080 198L1080 0L926 0L771 0L617 0L463 0L309 0L154 0L0 0Z" fill="#af1763"></path><path d="M0 136L154 57L309 96L463 77L617 39L771 52L926 37L1080 67L1080 0L926 0L771 0L617 0L463 0L309 0L154 0L0 0Z" fill="#691f6b"></path><path d="M0 37L154 51L309 60L463 41L617 112L771 119L926 66L1080 100L1080 0L926 0L771 0L617 0L463 0L309 0L154 0L0 0Z" fill="#151f59"></path></svg>