<svg id="visual" viewBox="0 0 1080 400" width="1080" height="400" xmlns="http://www.w3.org/2000/svg" xmlns:xlink="http://www.w3.org/1999/xlink" version="1.1"><rect x="0" y="0" width="1080" height="400" fill="#fff"></rect><path d="M0 98L15 107.5C30 117 60 136 90 132.3C120 128.7 150 102.3 180 101.3C210 100.3 240 124.7 270 142.8C300 161 330 173 360 178.8C390 184.7 420 184.3 450 182C480 179.7 510 175.3 540 159.7C570 144 600 117 630 110.3C660 103.7 690 117.3 720 132C750 146.7 780 162.3 810 157.5C840 152.7 870 127.3 900 128C930 128.7 960 155.3 990 155.3C1020 155.3 1050 128.7 1065 115.3L1080 102L1080 401L1065 401C1050 401 1020 401 990 401C960 401 930 401 900 401C870 401 840 401 810 401C780 401 750 401 720 401C690 401 660 401 630 401C600 401 570 401 540 401C510 401 480 401 450 401C420 401 390 401 360 401C330 401 300 401 270 401C240 401 210 401 180 401C150 401 120 401 90 401C60 401 30 401 15 401L0 401Z" fill="#52caf1"></path><path d="M0 171L15 184C30 197 60 223 90 231.3C120 239.7 150 230.3 180 230.5C210 230.7 240 240.3 270 234C300 227.7 330 205.3 360 201.8C390 198.3 420 213.7 450 211.2C480 208.7 510 188.3 540 177C570 165.7 600 163.3 630 172.2C660 181 690 201 720 210.3C750 219.7 780 218.3 810 216.8C840 215.3 870 213.7 900 213.8C930 214 960 216 990 213.7C1020 211.3 1050 204.7 1065 201.3L1080 198L1080 401L1065 401C1050 401 1020 401 990 401C960 401 930 401 900 401C870 401 840 401 810 401C780 401 750 401 720 401C690 401 660 401 630 401C600 401 570 401 540 401C510 401 480 401 450 401C420 401 390 401 360 401C330 401 300 401 270 401C240 401 210 401 180 401C150 401 120 401 90 401C60 401 30 401 15 401L0 401Z" fill="#248ec5"></path><path d="M0 286L15 278.5C30 271 60 256 90 249.8C120 243.7 150 246.3 180 244.7C210 243 240 237 270 241.2C300 245.3 330 259.7 360 265.5C390 271.3 420 268.7 450 263.2C480 257.7 510 249.3 540 245.3C570 241.3 600 241.7 630 244.8C660 248 690 254 720 253.5C750 253 780 246 810 240.3C840 234.7 870 230.3 900 241.7C930 253 960 280 990 283.3C1020 286.7 1050 266.3 1065 256.2L1080 246L1080 401L1065 401C1050 401 1020 401 990 401C960 401 930 401 900 401C870 401 840 401 810 401C780 401 750 401 720 401C690 401 660 401 630 401C600 401 570 401 540 401C510 401 480 401 450 401C420 401 390 401 360 401C330 401 300 401 270 401C240 401 210 401 180 401C150 401 120 401 90 401C60 401 30 401 15 401L0 401Z" fill="#145592"></path><path d="M0 305L15 302.2C30 299.3 60 293.7 90 292.8C120 292 150 296 180 301.3C210 306.7 240 313.3 270 317.5C300 321.7 330 323.3 360 328.5C390 333.7 420 342.3 450 339.8C480 337.3 510 323.7 540 320.3C570 317 600 324 630 331.8C660 339.7 690 348.3 720 344.5C750 340.7 780 324.3 810 320.8C840 317.3 870 326.7 900 332.5C930 338.3 960 340.7 990 338.2C1020 335.7 1050 328.3 1065 324.7L1080 321L1080 401L1065 401C1050 401 1020 401 990 401C960 401 930 401 900 401C870 401 840 401 810 401C780 401 750 401 720 401C690 401 660 401 630 401C600 401 570 401 540 401C510 401 480 401 450 401C420 401 390 401 360 401C330 401 300 401 270 401C240 401 210 401 180 401C150 401 120 401 90 401C60 401 30 401 15 401L0 401Z" fill="#151f59"></path></svg>