<svg id="visual" viewBox="0 0 1080 420" width="1080" height="420" xmlns="http://www.w3.org/2000/svg" xmlns:xlink="http://www.w3.org/1999/xlink" version="1.1"><path d="M0 56L25.7 54.5C51.3 53 102.7 50 154.2 48.5C205.7 47 257.3 47 308.8 45C360.3 43 411.7 39 463 39C514.3 39 565.7 43 617 43.7C668.3 44.3 719.7 41.7 771.2 43.2C822.7 44.7 874.3 50.3 925.8 49.7C977.3 49 1028.7 42 1054.3 38.5L1080 35L1080 0L1054.3 0C1028.7 0 977.3 0 925.8 0C874.3 0 822.7 0 771.2 0C719.7 0 668.3 0 617 0C565.7 0 514.3 0 463 0C411.7 0 360.3 0 308.8 0C257.3 0 205.7 0 154.2 0C102.7 0 51.3 0 25.7 0L0 0Z" fill="#3a67bc"></path><path d="M0 98L25.7 95.2C51.3 92.3 102.7 86.7 154.2 81C205.7 75.3 257.3 69.7 308.8 68.2C360.3 66.7 411.7 69.3 463 73.5C514.3 77.7 565.7 83.3 617 84.8C668.3 86.3 719.7 83.7 771.2 80.8C822.7 78 874.3 75 925.8 72.8C977.3 70.7 1028.7 69.3 1054.3 68.7L1080 68L1080 33L1054.3 36.5C1028.7 40 977.3 47 925.8 47.7C874.3 48.3 822.7 42.7 771.2 41.2C719.7 39.7 668.3 42.3 617 41.7C565.7 41 514.3 37 463 37C411.7 37 360.3 41 308.8 43C257.3 45 205.7 45 154.2 46.5C102.7 48 51.3 51 25.7 52.5L0 54Z" fill="#1247a1"></path><path d="M0 140L25.7 137.8C51.3 135.7 102.7 131.3 154.2 124.3C205.7 117.3 257.3 107.7 308.8 107C360.3 106.3 411.7 114.7 463 120.8C514.3 127 565.7 131 617 128.2C668.3 125.3 719.7 115.7 771.2 108.7C822.7 101.7 874.3 97.3 925.8 96C977.3 94.7 1028.7 96.3 1054.3 97.2L1080 98L1080 66L1054.3 66.7C1028.7 67.3 977.3 68.7 925.8 70.8C874.3 73 822.7 76 771.2 78.8C719.7 81.7 668.3 84.3 617 82.8C565.7 81.3 514.3 75.7 463 71.5C411.7 67.3 360.3 64.7 308.8 66.2C257.3 67.7 205.7 73.3 154.2 79C102.7 84.7 51.3 90.3 25.7 93.2L0 96Z" fill="#003680"></path><path d="M0 228L25.7 223C51.3 218 102.7 208 154.2 211.5C205.7 215 257.3 232 308.8 243.3C360.3 254.7 411.7 260.3 463 252.7C514.3 245 565.7 224 617 216.2C668.3 208.3 719.7 213.7 771.2 213.7C822.7 213.7 874.3 208.3 925.8 198.7C977.3 189 1028.7 175 1054.3 168L1080 161L1080 96L1054.3 95.2C1028.7 94.3 977.3 92.7 925.8 94C874.3 95.3 822.7 99.7 771.2 106.7C719.7 113.7 668.3 123.3 617 126.2C565.7 129 514.3 125 463 118.8C411.7 112.7 360.3 104.3 308.8 105C257.3 105.7 205.7 115.3 154.2 122.3C102.7 129.3 51.3 133.7 25.7 135.8L0 138Z" fill="#003173"></path><path d="M0 316L25.7 315.3C51.3 314.7 102.7 313.3 154.2 318.2C205.7 323 257.3 334 308.8 337.5C360.3 341 411.7 337 463 335C514.3 333 565.7 333 617 323.8C668.3 314.7 719.7 296.3 771.2 290.7C822.7 285 874.3 292 925.8 288.5C977.3 285 1028.7 271 1054.3 264L1080 257L1080 159L1054.3 166C1028.7 173 977.3 187 925.8 196.7C874.3 206.3 822.7 211.7 771.2 211.7C719.7 211.7 668.3 206.3 617 214.2C565.7 222 514.3 243 463 250.7C411.7 258.3 360.3 252.7 308.8 241.3C257.3 230 205.7 213 154.2 209.5C102.7 206 51.3 216 25.7 221L0 226Z" fill="#003680"></path><path d="M0 341L25.7 346.7C51.3 352.3 102.7 363.7 154.2 369.3C205.7 375 257.3 375 308.8 377C360.3 379 411.7 383 463 382.3C514.3 381.7 565.7 376.3 617 368.7C668.3 361 719.7 351 771.2 344C822.7 337 874.3 333 925.8 331.7C977.3 330.3 1028.7 331.7 1054.3 332.3L1080 333L1080 255L1054.3 262C1028.7 269 977.3 283 925.8 286.5C874.3 290 822.7 283 771.2 288.7C719.7 294.3 668.3 312.7 617 321.8C565.7 331 514.3 331 463 333C411.7 335 360.3 339 308.8 335.5C257.3 332 205.7 321 154.2 316.2C102.7 311.3 51.3 312.7 25.7 313.3L0 314Z" fill="#1247a1"></path><path d="M0 421L25.7 421C51.3 421 102.7 421 154.2 421C205.7 421 257.3 421 308.8 421C360.3 421 411.7 421 463 421C514.3 421 565.7 421 617 421C668.3 421 719.7 421 771.2 421C822.7 421 874.3 421 925.8 421C977.3 421 1028.7 421 1054.3 421L1080 421L1080 331L1054.3 330.3C1028.7 329.7 977.3 328.3 925.8 329.7C874.3 331 822.7 335 771.2 342C719.7 349 668.3 359 617 366.7C565.7 374.3 514.3 379.7 463 380.3C411.7 381 360.3 377 308.8 375C257.3 373 205.7 373 154.2 367.3C102.7 361.7 51.3 350.3 25.7 344.7L0 339Z" fill="#3a67bc"></path></svg>